<?xml version="1.0" encoding="UTF-8"?>
<svg id="Layer_1" xmlns="http://www.w3.org/2000/svg" version="1.1" viewBox="0 0 459 391">
  <!-- Generator: Adobe Illustrator 30.2.1, SVG Export Plug-In . SVG Version: 2.1.1 Build 1)  -->
  <defs>
    <style>
      .st0 {
        fill: #1e1e1e;
      }

      .st1 {
        fill: none;
        stroke: #01e8bd;
        stroke-linecap: round;
        stroke-width: 20px;
      }
    </style>
  </defs>
  <path class="st1" d="M146.66,166.12v129.71c13.57,27.77,50.75,82.75,90.89,80.48s74.8-54.6,87.1-80.48h-87.1M146.66,166.12c1.26-20.51,21.21-61.73,90.89-62.49s87.1,41.34,87.1,62.49c31.38,0,54.06-10,70.06-25.24M146.66,166.12c-30.96,0-53.62-9.98-69.98-25.24M237.55,295.83c-8.84-7.89-25.94-25.18-23.67-31.24,2.84-7.57,47.34-10.41,45.45,0-1.51,8.33-15.15,24.3-21.78,31.24h0ZM425.01,14.63c3.33,14.42,4.71,33.4,2.47,53.02M38.72,14.63c-2.37,23.75-.42,58.67,12.56,89M51.28,103.63c17.91-2.52,54.28-14.39,56.56-41.66M51.28,103.63c5.94,13.88,14.19,26.8,25.39,37.24M394.71,140.87c15.15-.74,46.01,3.28,48.29,25.24M394.71,140.87c20.18-19.23,29.75-46.81,32.77-73.22M427.48,67.65c-24.49-2.84-71.96-17.42-65.9-53.02M76.67,140.87c-16.44,11.57-51.58,30.17-60.67,11.99M252.7,194.52c1.58-3.79,8.14-11.36,21.78-11.36s20.2,7.57,21.78,11.36"/>
</svg>